<?xml version="1.0" encoding="UTF-8"?>
<svg xmlns="http://www.w3.org/2000/svg" xmlns:xlink="http://www.w3.org/1999/xlink" width="300pt" height="299.999988pt" viewBox="0 0 300 299.999988" version="1.2">
<defs>
<clipPath id="clip1">
  <path d="M 23.820312 57.574219 L 275.46875 57.574219 L 275.46875 241.722656 L 23.820312 241.722656 Z M 23.820312 57.574219 "/>
</clipPath>
</defs>
<g id="surface1">
<g clip-path="url(#clip1)" clip-rule="nonzero">
<path style=" stroke:none;fill-rule:nonzero;fill:rgb(12.159729%,39.99939%,19.60907%);fill-opacity:1;" d="M 275.328125 61.757812 L 275.328125 237.535156 C 275.328125 239.839844 273.445312 241.722656 271.136719 241.722656 L 28.148438 241.722656 C 25.839844 241.722656 23.960938 239.839844 23.960938 237.535156 L 23.960938 61.757812 C 23.960938 59.453125 25.839844 57.574219 28.148438 57.574219 L 271.136719 57.574219 C 273.445312 57.574219 275.328125 59.453125 275.328125 61.757812 "/>
</g>
<path style=" stroke:none;fill-rule:nonzero;fill:rgb(98.429871%,78.42865%,25.489807%);fill-opacity:1;" d="M 74.234375 195.683594 C 71.925781 195.683594 70.042969 197.566406 70.042969 199.871094 C 70.042969 202.175781 71.925781 204.054688 74.234375 204.054688 C 76.539062 204.054688 78.421875 202.175781 78.421875 199.871094 C 78.421875 197.566406 76.539062 195.683594 74.234375 195.683594 Z M 74.234375 212.425781 C 67.292969 212.425781 61.664062 206.800781 61.664062 199.871094 C 61.664062 192.9375 67.292969 187.3125 74.234375 187.3125 C 81.171875 187.3125 86.800781 192.9375 86.800781 199.871094 C 86.800781 206.800781 81.171875 212.425781 74.234375 212.425781 "/>
<path style=" stroke:none;fill-rule:nonzero;fill:rgb(98.429871%,78.42865%,25.489807%);fill-opacity:1;" d="M 191.539062 132.90625 C 189.230469 132.90625 187.347656 134.785156 187.347656 137.089844 C 187.347656 139.398438 189.230469 141.277344 191.539062 141.277344 C 193.847656 141.277344 195.726562 139.398438 195.726562 137.089844 C 195.726562 134.785156 193.847656 132.90625 191.539062 132.90625 Z M 191.539062 149.648438 C 184.601562 149.648438 178.96875 144.023438 178.96875 137.089844 C 178.96875 130.160156 184.601562 124.535156 191.539062 124.535156 C 198.476562 124.535156 204.105469 130.160156 204.105469 137.089844 C 204.105469 144.023438 198.476562 149.648438 191.539062 149.648438 "/>
<path style=" stroke:none;fill-rule:nonzero;fill:rgb(31.759644%,59.21936%,84.709167%);fill-opacity:1;" d="M 82.253906 139.183594 L 89.765625 131.679688 C 91.398438 130.046875 91.398438 127.398438 89.765625 125.761719 C 88.128906 124.128906 85.476562 124.128906 83.839844 125.761719 L 76.328125 133.265625 L 68.816406 125.761719 C 67.179688 124.128906 64.527344 124.128906 62.890625 125.761719 C 61.253906 127.398438 61.253906 130.046875 62.890625 131.679688 L 70.402344 139.183594 L 62.890625 146.6875 C 61.253906 148.324219 61.253906 150.972656 62.890625 152.605469 C 63.710938 153.421875 64.773438 153.832031 65.855469 153.832031 C 66.933594 153.832031 68 153.421875 68.816406 152.605469 L 76.328125 145.101562 L 83.839844 152.605469 C 84.65625 153.421875 85.722656 153.832031 86.800781 153.832031 C 87.882812 153.832031 88.945312 153.421875 89.765625 152.605469 C 91.398438 150.972656 91.398438 148.324219 89.765625 146.6875 L 82.253906 139.183594 "/>
<path style=" stroke:none;fill-rule:nonzero;fill:rgb(31.759644%,59.21936%,84.709167%);fill-opacity:1;" d="M 228.882812 176.851562 L 236.394531 169.347656 C 238.03125 167.710938 238.03125 165.0625 236.394531 163.429688 C 234.757812 161.792969 232.109375 161.792969 230.472656 163.429688 L 222.960938 170.933594 L 215.449219 163.429688 C 213.8125 161.792969 211.160156 161.792969 209.523438 163.429688 C 207.886719 165.0625 207.886719 167.710938 209.523438 169.347656 L 217.035156 176.851562 L 209.523438 184.355469 C 207.886719 185.988281 207.886719 188.636719 209.523438 190.273438 C 210.34375 191.089844 211.40625 191.5 212.484375 191.5 C 213.566406 191.5 214.628906 191.089844 215.449219 190.273438 L 222.960938 182.769531 L 230.472656 190.273438 C 231.289062 191.089844 232.351562 191.5 233.433594 191.5 C 234.511719 191.5 235.578125 191.089844 236.394531 190.273438 C 238.03125 188.636719 238.03125 185.988281 236.394531 184.355469 L 228.882812 176.851562 "/>
<path style=" stroke:none;fill-rule:nonzero;fill:rgb(94.509888%,27.449036%,12.939453%);fill-opacity:1;" d="M 168.726562 137.289062 L 151.574219 125.289062 C 149.675781 123.964844 147.058594 124.421875 145.734375 126.316406 C 144.40625 128.214844 144.863281 130.832031 146.761719 132.15625 L 154.914062 137.84375 C 104.179688 144.675781 87.867188 179.792969 87.160156 181.347656 C 86.230469 183.472656 87.179688 185.941406 89.289062 186.871094 C 89.84375 187.117188 90.417969 187.230469 90.992188 187.230469 C 92.59375 187.230469 94.117188 186.316406 94.820312 184.746094 C 94.96875 184.402344 110.1875 151.738281 157.53125 145.953125 L 150.871094 155.46875 C 149.546875 157.363281 150.019531 159.964844 151.902344 161.289062 C 152.636719 161.808594 153.472656 162.054688 154.308594 162.054688 C 155.632812 162.054688 156.925781 161.433594 157.746094 160.257812 L 169.757812 143.125 C 170.394531 142.207031 170.640625 141.097656 170.460938 140 C 170.265625 138.90625 169.640625 137.925781 168.726562 137.289062 "/>
<path style=" stroke:none;fill-rule:nonzero;fill:rgb(100%,100%,100%);fill-opacity:1;" d="M 199.703125 224.980469 C 197.5625 199.230469 175.957031 178.945312 149.644531 178.945312 C 123.328125 178.945312 101.726562 199.230469 99.582031 224.980469 L 40.71875 224.980469 L 40.71875 94.863281 C 51.222656 93.082031 59.503906 84.808594 61.289062 74.3125 L 90.992188 74.3125 L 90.992188 107.796875 C 90.992188 110.101562 92.875 111.980469 95.179688 111.980469 L 204.105469 111.980469 C 206.414062 111.980469 208.296875 110.101562 208.296875 107.796875 L 208.296875 74.3125 L 238 74.3125 C 239.78125 84.808594 248.0625 93.082031 258.570312 94.863281 L 258.570312 224.980469 Z M 107.960938 224.980469 C 110.074219 203.859375 127.960938 187.3125 149.644531 187.3125 C 171.328125 187.3125 189.214844 203.859375 191.324219 224.980469 Z M 40.71875 74.3125 L 52.761719 74.3125 C 51.242188 80.183594 46.59375 84.824219 40.71875 86.328125 Z M 111.9375 74.3125 L 111.9375 86.867188 C 111.9375 89.175781 113.820312 91.054688 116.128906 91.054688 L 183.160156 91.054688 C 185.46875 91.054688 187.347656 89.175781 187.347656 86.867188 L 187.347656 74.3125 L 199.917969 74.3125 L 199.917969 103.609375 L 99.371094 103.609375 L 99.371094 74.3125 Z M 178.96875 74.3125 L 178.96875 82.683594 L 120.316406 82.683594 L 120.316406 74.3125 Z M 258.570312 74.3125 L 258.570312 86.328125 C 252.695312 84.824219 248.046875 80.183594 246.527344 74.3125 Z M 262.757812 65.941406 L 36.527344 65.941406 C 34.21875 65.941406 32.339844 67.824219 32.339844 70.128906 L 32.339844 229.167969 C 32.339844 231.472656 34.21875 233.351562 36.527344 233.351562 L 262.757812 233.351562 C 265.066406 233.351562 266.949219 231.472656 266.949219 229.167969 L 266.949219 70.128906 C 266.949219 67.824219 265.066406 65.941406 262.757812 65.941406 "/>
</g>
</svg>
