<?xml version="1.0" encoding="UTF-8" standalone="no"?> <svg xmlns="http://www.w3.org/2000/svg" viewBox="0 0 47.05 42.03"><defs><style>.cls-1{fill:none;stroke:#000;stroke-linecap:round;stroke-linejoin:round;stroke-width:2px;}</style></defs><title>Asset 15</title><g id="Layer_2" data-name="Layer 2"><g id="Layer_2-2" data-name="Layer 2"><path class="cls-1" d="M33,36.62H3a2,2,0,0,1-2-2V3A2,2,0,0,1,3,1H44.05a2,2,0,0,1,2,2V34.62a2,2,0,0,1-2,2h-2.8"/><path class="cls-1" d="M31.93,31.31l1.46,7.3a1,1,0,0,0,1.69.51l1.51-1.5,2.82,2.82a2,2,0,0,0,2.83,0h0a2,2,0,0,0,0-2.82l-2.83-2.83,1.51-1.51a1,1,0,0,0-.51-1.69l-7.3-1.46A1,1,0,0,0,31.93,31.31Z"/><line class="cls-1" x1="1.31" y1="7.62" x2="45.31" y2="7.62"/><circle class="cls-1" cx="5.37" cy="4.37" r="0.32"/><circle class="cls-1" cx="8.37" cy="4.37" r="0.32"/><circle class="cls-1" cx="11.37" cy="4.37" r="0.32"/><rect class="cls-1" x="13.06" y="14.04" width="19.74" height="13.08" rx="0.44"/><path class="cls-1" d="M32.8,14.48l-9.58,7.75a.44.44,0,0,1-.57,0l-9.59-7.75"/><line class="cls-1" x1="32.47" y1="27.12" x2="25.25" y2="20.58"/><line class="cls-1" x1="13.5" y1="27.12" x2="20.48" y2="20.8"/></g></g></svg>