<?xml version="1.0" encoding="utf-8"?>
<svg id="master-artboard" viewBox="0 0 11853 8297" xmlns="http://www.w3.org/2000/svg" width="11853px" height="8297px" version="1.0" style="shape-rendering:geometricPrecision; text-rendering:geometricPrecision; image-rendering:optimizeQuality; fill-rule:evenodd; clip-rule:evenodd">
 
 <metadata id="CorelCorpID_0Corel-Layer"/><path d="M 0 0 H 11853 V 8297 H 0 V 0 Z" class="fil0" style="fill: none;" transform="matrix(1, 0, 0, 1, 0, 0)"/><path class="fil1" d="M2993 0l5867 0 0 2392 -250 933 250 144 0 4828 -5867 0 0 -6466 264 264 -198 997 -66 -1261 0 -1831zm786 7589l852 45 370 641 -1039 0 -183 -686z" style="fill: rgb(254, 254, 254);" transform="matrix(1, 0, 0, 1, 0, 0)"/><path class="fil2" d="M8733 94l0 2772 -123 459 123 71 0 4137 127 0 0 764 -5867 0 0 -764 111 0 0 -4667 153 -771 -153 -154 0 -1847 5629 0zm-4954 7495l852 45 370 641 -1039 0 -183 -686z" style="fill: rgb(253, 213, 77);" transform="matrix(1, 0, 0, 1, 0, 0)"/><path d="M 6345 94 L 6345 6926 L 3513 6926 L 3513 94 Z" class="fil3" style="fill: rgb(252, 204, 41);" transform="matrix(1, 0, 0, 1, 0, 0)"/><path d="M 8733 7239 L 4967 7239 L 4967 4065 L 8733 4065 Z" class="fil4" style="fill: rgb(162, 129, 51);" transform="matrix(1, 0, 0, 1, 0, 0)"/><path d="M 8733 94 L 8733 2866 L 8610 3325 L 8733 3396 L 8733 4315 L 6087 4315 L 6087 94 Z" class="fil5" style="fill: rgb(204, 160, 34);" transform="matrix(1, 0, 0, 1, 0, 0)"/><path class="fil1" d="M8860 7002l0 1295 -5867 0 0 -2215 126 -157 4864 389 877 688zm-5081 587l852 45 370 641 -1039 0 -183 -686z" style="fill: rgb(254, 254, 254);" transform="matrix(1, 0, 0, 1, 0, 0)"/><path d="M 3243 5934 L 4398 6027 L 6229 7882 L 5239 7832 L 5239 7613 L 4041 6632 L 3104 6632 L 3104 6389 Z" class="fil6" style="fill: rgb(163, 202, 40);" transform="matrix(1, 0, 0, 1, 0, 0)"/><path d="M 5617 7263 L 6120 7772 L 6178 7879 L 5239 7832 L 5239 7613 L 5203 7583 L 5531 7255 Z" class="fil7" style="fill: rgb(186, 225, 237);" transform="matrix(1, 0, 0, 1, 0, 0)"/><path d="M 3029 5955 L 3260 5752 L 4299 4713 L 4543 4853 L 3977 6224 L 3029 6224 Z" class="fil8" style="fill: white;" transform="matrix(1, 0, 0, 1, 0, 0)"/><path d="M 7639 5963 L 7771 6191 L 8003 6191 L 8805 6902 L 8805 7270 L 7327 6019 Z" class="fil1" style="fill: rgb(254, 254, 254);" transform="matrix(1, 0, 0, 1, 0, 0)"/><path d="M 7617 8037 L 7617 7038 L 8805 7144 L 8805 7570 L 7807 8146 Z" class="fil6" style="fill: rgb(163, 202, 40);" transform="matrix(1, 0, 0, 1, 0, 0)"/><path d="M 6459 7282 L 6710 8039 L 4865 8039 L 4740 7823 L 6054 7823 L 5406 7282 Z" class="fil9" style="fill: rgb(232, 101, 135);" transform="matrix(1, 0, 0, 1, 0, 0)"/><path d="M 5203 8039 L 4747 7835 L 4740 7823 L 6054 7823 L 6691 8039 Z" class="fil10" style="fill: rgb(220, 63, 106);" transform="matrix(1, 0, 0, 1, 0, 0)"/><path d="M 6459 7400 L 6742 8039 L 6090 8039 Z" class="fil11" style="fill: rgb(134, 47, 89);" transform="matrix(1, 0, 0, 1, 0, 0)"/><path d="M 6599 8039 L 6469 7611 L 6469 8039 L 5597 8039 L 5548 8010 L 5405 7823 L 6054 7823 L 4607 6615 L 5321 6209 L 6841 6730 L 7285 7845 L 7067 7719 L 6882 8039 Z" class="fil12" style="fill: rgb(248, 184, 71);" transform="matrix(1, 0, 0, 1, 0, 0)"/><path d="M 8805 7570 L 7807 8146 L 7694 8081 L 7501 7361 L 8805 7154 Z" class="fil12" style="fill: rgb(248, 184, 71);" transform="matrix(1, 0, 0, 1, 0, 0)"/><path d="M 7035 7056 L 6638 7239 L 7013 7812 L 7067 7719 L 7390 7906 L 7423 7460 Z" class="fil1" style="fill: rgb(254, 254, 254);" transform="matrix(1, 0, 0, 1, 0, 0)"/><path d="M 7358 7887 L 7358 7572 L 7070 7072 L 7732 6439 L 8117 7004 L 7585 7444 L 7721 8097 Z" class="fil13" style="fill: rgb(151, 209, 227);" transform="matrix(1, 0, 0, 1, 0, 0)"/><path d="M 7358 7887 L 7358 7634 L 7625 7634 L 7721 8097 Z" class="fil1" style="fill: rgb(254, 254, 254);" transform="matrix(1, 0, 0, 1, 0, 0)"/><path class="fil9" d="M6782 7239l-678 0 -891 -891 -367 212 1011 824 0 274 -1718 -1434 -327 0 0 -31 431 -757 1541 171 998 1632zm-925 584l0 35 180 181 -512 0 -374 -216 706 0z" style="fill: rgb(232, 101, 135);" transform="matrix(1, 0, 0, 1, 0, 0)"/><path d="M 5531 7255 L 5087 7015 L 5460 7326 Z" class="fil12" style="fill: rgb(248, 184, 71);" transform="matrix(1, 0, 0, 1, 0, 0)"/><path d="M 7871 6052 L 7625 6052 L 7532 5998 L 7715 6181 L 7702 6232 L 7983 6232 L 8684 6806 L 8704 6884 L 8758 6898 L 8805 6959 L 8805 7270 L 7944 7767 L 7640 7463 L 7821 8138 L 7807 8146 L 7703 8086 L 7530 7422 L 7673 6654 L 7288 5983 L 7573 5872 Z" class="fil14" style="fill: rgb(28, 112, 123);" transform="matrix(1, 0, 0, 1, 0, 0)"/><path d="M 7871 6052 L 7625 6052 L 7532 5998 L 7715 6181 L 7702 6232 L 7983 6232 L 8684 6806 L 8704 6884 L 8758 6898 L 8805 6959 L 8805 7270 L 7944 7767 L 7640 7463 L 7821 8138 L 7807 8146 L 7703 8086 L 7530 7422 L 7673 6654 L 7288 5983 L 7573 5872 Z" class="fil15" style="fill: rgb(146, 86, 157);" transform="matrix(1, 0, 0, 1, 0, 0)"/><path d="M 7027 4946 L 7764 5431 L 7871 6052 L 7593 5944 L 7573 5872 L 7522 5981 L 7442 6028 L 7673 6654 L 7127 7267 L 6464 5738 Z" class="fil1" style="fill: rgb(254, 254, 254);" transform="matrix(1, 0, 0, 1, 0, 0)"/><path class="fil7" d="M7716 5992l-123 -48 -19 -68 119 69 23 47zm-144 -117l-50 106 -80 47 0 1 -197 0 -108 -405 435 251z" style="fill: rgb(186, 225, 237);" transform="matrix(1, 0, 0, 1, 0, 0)"/><path d="M 5222 5822 L 6345 6926 L 6414 6953 L 6435 7026 L 6638 7239 L 6834 7239 L 7238 7772 L 7213 7501 L 6789 6623 L 6582 5744 L 5099 5216 L 4779 5478 Z" class="fil13" style="fill: rgb(151, 209, 227);" transform="matrix(1, 0, 0, 1, 0, 0)"/><path class="fil16" d="M3341 5759l-133 58 -104 126 0 281 1035 0 1099 918 259 128 244 231 45 -60 -1522 -1252 -923 -430zm1587 2064l480 216 190 0 -374 -216 -296 0z" style="fill: rgb(104, 67, 136);" transform="matrix(1, 0, 0, 1, 0, 0)"/><path d="M 4283 4899 L 4110 4899 L 4022 5116 L 3300 5752 L 3153 6224 L 4139 6224 L 4294 6354 L 4392 6328 L 5774 7452 L 5797 7430 L 4649 6478 L 4649 5927 L 5614 6394 L 6160 7210 L 6236 7166 L 5047 5503 L 4967 5109 Z" class="fil14" style="fill: rgb(28, 112, 123);" transform="matrix(1, 0, 0, 1, 0, 0)"/><path d="M 4283 4899 L 4110 4899 L 4087 4955 L 4770 5349 L 5384 5974 L 5047 5503 L 4967 5109 Z" class="fil17" style="fill: rgb(40, 67, 111);" transform="matrix(1, 0, 0, 1, 0, 0)"/><path d="M 6751 5984 L 7005 6433 L 7108 7222 L 7217 7485 L 7209 7517 L 7074 7232 L 6563 6628 L 6563 6262 Z" class="fil6" style="fill: rgb(163, 202, 40);" transform="matrix(1, 0, 0, 1, 0, 0)"/><path d="M 4723 4312 L 4275 4312 L 4147 4868 L 5047 5503 L 5191 5498 L 5259 5742 L 6061 6282 L 6403 6045 L 6403 6383 L 6563 6383 L 6725 5640 Z" class="fil1" style="fill: rgb(254, 254, 254);" transform="matrix(1, 0, 0, 1, 0, 0)"/><path d="M 4671 4312 L 4275 4312 L 4639 4401 Z" class="fil13" style="fill: rgb(151, 209, 227);" transform="matrix(1, 0, 0, 1, 0, 0)"/><path d="M 4597 3332 L 4643 4084 L 4639 4401 L 5902 5195 L 5861 4692 L 4813 3344 Z" class="fil18" style="fill: rgb(91, 39, 52);" transform="matrix(1, 0, 0, 1, 0, 0)"/><path d="M 4601 3407 L 4643 4084 L 4639 4401 L 4811 4509 L 4601 3407 Z" class="fil19" style="fill: rgb(238, 209, 75);" transform="matrix(1, 0, 0, 1, 0, 0)"/><path d="M 6762 4812 L 5457 4790 L 6050 5329 L 6762 5329 Z" class="fil9" style="fill: rgb(232, 101, 135);" transform="matrix(1, 0, 0, 1, 0, 0)"/><path d="M 7146 4888 L 6948 5109 L 6777 6345 L 6563 6402 L 6563 5840 L 6092 5353 L 6690 5193 L 6574 4963 Z" class="fil20" style="fill: rgb(242, 153, 86);" transform="matrix(1, 0, 0, 1, 0, 0)"/><path d="M 7146 4888 L 6948 5109 L 6777 6345 L 6563 6402 L 6563 6204 L 6751 6204 L 6751 5764 L 6702 5680 L 6844 5435 L 6844 4928 Z" class="fil19" style="fill: rgb(238, 209, 75);" transform="matrix(1, 0, 0, 1, 0, 0)"/><path d="M 6844 5109 L 6150 5109 L 5457 4790 L 5613 4587 L 6952 4850 L 6844 4850 Z" class="fil11" style="fill: rgb(134, 47, 89);" transform="matrix(1, 0, 0, 1, 0, 0)"/><path d="M 4691 3403 L 4901 4303 L 4981 4324 L 4955 4369 L 4965 4378 L 5001 4336 L 4988 4395 L 5457 4790 L 5669 4858 L 6068 4404 L 4878 3401 Z" class="fil11" style="fill: rgb(134, 47, 89);" transform="matrix(1, 0, 0, 1, 0, 0)"/><path d="M 4577 2466 L 4288 2384 L 4227 2845 L 4280 3065 L 4392 3321 L 4816 3182 L 4742 2515 Z" class="fil9" style="fill: rgb(232, 101, 135);" transform="matrix(1, 0, 0, 1, 0, 0)"/><path d="M 4178 2384 L 4329 2440 L 4263 2898 L 4134 2602 Z" class="fil15" style="fill: rgb(146, 86, 157);" transform="matrix(1, 0, 0, 1, 0, 0)"/><path d="M 4743 2933 L 4554 2526 L 4524 2517 L 4542 2474 L 4511 2482 L 4431 2365 L 4431 2295 L 4454 2289 L 4423 2258 L 4423 2066 L 4463 2012 L 4674 2012 L 4799 2566 Z" class="fil16" style="fill: rgb(104, 67, 136);" transform="matrix(1, 0, 0, 1, 0, 0)"/><path d="M 4878 3401 L 4622 3501 L 4358 3388 L 4274 3063 L 4134 2602 L 4158 2377 L 4198 2392 L 4172 2600 L 4262 2890 L 4283 3063 L 4412 3267 L 4621 3169 L 4585 3106 L 4748 2824 L 4787 2922 L 4809 3122 L 4800 3127 Z" class="fil8" style="fill: white;" transform="matrix(1, 0, 0, 1, 0, 0)"/><path d="M 4548 1829 L 4550 2401 L 4649 2643 L 4770 3333 L 4813 3344 L 4770 3405 L 4911 3775 L 4866 3807 L 4877 3821 L 4949 3785 L 4929 3834 L 5041 3863 L 5458 3862 L 5151 1985 Z" class="fil15" style="fill: rgb(146, 86, 157);" transform="matrix(1, 0, 0, 1, 624.2996568142694, -78.0374571017835)"/><path d="M 5898 4809 L 5572 4809 L 4980 3843 L 5404 3843 L 6067 3742 L 6547 4159 L 6534 4843 Z" class="fil21" style="fill: rgb(186, 120, 56);" transform="matrix(1, 0, 0, 1, 0, 0)"/><path d="M 6296 3941 L 6349 3987 L 6536 4726 L 6534 4843 L 6424 4837 L 5786 4698 L 5836 4472 L 5614 4197 L 5773 4037 L 5729 3905 Z" class="fil6" style="fill: rgb(163, 202, 40);" transform="matrix(1, 0, 0, 1, 0, 0)"/><path d="M 6324 4062 L 6123 4181 L 6505 4844 L 6811 4352 L 6613 4078 Z" class="fil19" style="fill: rgb(238, 209, 75);" transform="matrix(1, 0, 0, 1, 0, 0)"/><path d="M 7146 4888 L 6884 5065 L 6832 5052 L 6793 5091 L 6281 5091 L 5612 4837 L 5834 4615 L 6567 4811 L 6832 4658 Z" class="fil21" style="fill: rgb(186, 120, 56);" transform="matrix(1, 0, 0, 1, 0, 0)"/><path d="M 7146 4888 L 6884 5065 L 6832 5052 L 6793 5091 L 6648 5091 L 6527 4882 L 6541 4804 L 6567 4811 L 6653 4762 L 6900 4708 Z" class="fil6" style="fill: rgb(163, 202, 40);" transform="matrix(1, 0, 0, 1, 0, 0)"/><path d="M 5486 319 L 5279 319 L 4825 605 L 4818 652 L 4776 652 L 4470 1107 L 4425 1477 L 4452 1492 L 4426 1507 L 4426 2044 L 4626 2044 L 5776 543 Z" class="fil22" style="fill: rgb(115, 108, 55);" transform="matrix(1, 0, 0, 1, 0, 0)"/><path d="M 4583 939 L 4470 1107 L 4425 1477 L 4452 1492 L 4426 1507 L 4426 2044 L 4626 2044 L 4736 1900 L 4828 1052 Z" class="fil11" style="fill: rgb(134, 47, 89);" transform="matrix(1, 0, 0, 1, 0, 0)"/><path d="M 4828 1052 L 4719 999 L 4550 1375 L 4550 1610 L 4588 1648 L 4548 1672 L 4548 2044 L 5162 2044 L 5162 2765 L 5253 2765 L 5253 1166 Z" class="fil10" style="fill: rgb(220, 63, 106);" transform="matrix(1, 0, 0, 1, 0, 0)"/><path d="M 7591 1276 L 7351 759 L 7313 748 L 7317 712 L 7092 512 L 7063 519 L 7052 481 L 6221 151 L 5794 151 L 5773 186 L 5724 173 L 5397 287 L 5628 522 Z" class="fil9" style="fill: rgb(232, 101, 135);" transform="matrix(1, 0, 0, 1, 0, 0)"/><path d="M 5944 3950 L 5930 3880 L 5703 4107 L 5859 4197 L 5990 4121 Z" class="fil19" style="fill: rgb(238, 209, 75);" transform="matrix(1, 0, 0, 1, 0, 0)"/><path d="M 5871 3653 L 6058 3977 L 6523 3977 L 6646 3521 L 6066 3324 Z" class="fil15" style="fill: rgb(146, 86, 157);" transform="matrix(1, 0, 0, 1, 0, 0)"/><path d="M 6180 3977 L 6223 3977 L 6546 3890 L 6610 3576 L 6269 3570 L 6360 3661 L 6360 3846 L 6311 3817 L 6126 3923 Z" class="fil9" style="fill: rgb(232, 101, 135);" transform="matrix(1, 0, 0, 1, 0, 0)"/><path d="M 6317 3410 L 6066 3324 L 5891 3619 L 6317 3619 Z" class="fil9" style="fill: rgb(232, 101, 135);" transform="matrix(1, 0, 0, 1, 0, 0)"/><path d="M 6171 3273 L 5976 3834 L 5703 4107 L 5247 3843 L 5181 3461 L 5355 3360 L 6128 3170 Z" class="fil9" style="fill: rgb(232, 101, 135);" transform="matrix(1, 0, 0, 1, 0, 0)"/><path d="M 6171 3273 L 5922 3705 L 5901 3705 L 5746 3436 L 5946 3215 L 6128 3170 Z" class="fil20" style="fill: rgb(242, 153, 86);" transform="matrix(1, 0, 0, 1, 0, 0)"/><path d="M 6547 4089 L 6547 4182 L 6715 4350 L 6471 4784 L 6583 4979 L 6724 4886 L 6907 5004 L 7146 4888 L 7269 4288 L 6868 3960 Z" class="fil23" style="fill: rgb(253, 229, 169);" transform="matrix(1, 0, 0, 1, 0, 0)"/><path d="M 6793 4128 L 6929 4128 L 7017 4443 L 7099 4465 L 7062 4573 L 7146 4888 L 7501 4315 L 7747 3508 L 7747 3391 L 7412 3391 L 6853 3937 Z" class="fil1" style="fill: rgb(254, 254, 254);" transform="matrix(1, 0, 0, 1, 0, 0)"/><path d="M 6802 4101 L 6795 4124 L 7069 4124 L 7272 4194 L 7350 3904 L 7083 3860 Z" class="fil23" style="fill: rgb(253, 229, 169);" transform="matrix(1, 0, 0, 1, 0, 0)"/><path d="M 6594 3551 L 6405 3880 L 6405 3948 L 6755 3948 L 6755 3479 Z" class="fil20" style="fill: rgb(242, 153, 86);" transform="matrix(1, 0, 0, 1, 0, 0)"/><path d="M 6113 3360 L 6093 3390 L 6317 3619 L 6555 3619 L 6615 3515 Z" class="fil11" style="fill: rgb(134, 47, 89);" transform="matrix(1, 0, 0, 1, 0, 0)"/><path d="M 6979 3911 L 6532 3934 L 6501 3915 L 6488 3856 L 6623 3820 L 6699 3840 L 6699 3800 L 6699 3737 L 6699 3442 L 7014 3442 Z" class="fil19" style="fill: rgb(238, 209, 75);" transform="matrix(1, 0, 0, 1, 0, 0)"/><path d="M 7694 2196 L 7756 2134 L 7842 2213 L 7777 2380 L 7777 2617 L 7743 2709 L 7779 3391 L 7741 3471 L 7235 3078 L 7235 2014 Z" class="fil1" style="fill: rgb(254, 254, 254);" transform="matrix(1, 0, 0, 1, 0, 0)"/><path d="M 7513 3471 L 7513 3824 L 7464 3910 L 7513 3923 L 7513 4077 L 7487 4122 L 7436 4212 L 7147 3923 L 6909 3974 L 7022 3549 L 6793 3152 L 7132 2991 Z" class="fil19" style="fill: rgb(238, 209, 75);" transform="matrix(1, 0, 0, 1, 0, 0)"/><path d="M 7006 3323 L 7201 3596 L 7265 3356 L 7022 3215 Z" class="fil20" style="fill: rgb(242, 153, 86);" transform="matrix(1, 0, 0, 1, 0, 0)"/><path d="M 7050 3827 L 7146 3414 L 7375 3810 L 7303 4079 L 7147 3923 L 6997 3975 L 7049 3916 L 7116 3893 Z" class="fil6" style="fill: rgb(163, 202, 40);" transform="matrix(1, 0, 0, 1, 0, 0)"/><path d="M 7263 3961 L 7139 3876 L 7192 3783 L 7322 3858 Z" class="fil21" style="fill: rgb(186, 120, 56);" transform="matrix(1, 0, 0, 1, 0, 0)"/><path d="M 6966 3255 L 7080 3286 L 7213 3542 L 7139 3876 L 6947 3918 L 6864 3851 L 6889 3809 L 6791 3602 L 6903 3469 Z" class="fil23" style="fill: rgb(253, 229, 169);" transform="matrix(1, 0, 0, 1, 0, 0)"/><path d="M 7137 3881 L 7072 3890 L 6913 3890 L 6864 3851 L 6889 3809 L 6791 3602 L 6855 3526 L 6968 3563 L 6968 3761 L 7019 3705 L 7168 3744 Z" class="fil19" style="fill: rgb(238, 209, 75);" transform="matrix(1, 0, 0, 1, 0, 0)"/><path d="M 6824 3563 L 6903 3469 L 6934 3365 L 7006 3323 L 6968 3480 L 6968 3646 Z" class="fil1" style="fill: rgb(254, 254, 254);" transform="matrix(1, 0, 0, 1, 0, 0)"/><path d="M 7030 3900 L 7009 3905 L 6962 3895 L 6962 3804 L 7050 3827 Z" class="fil23" style="fill: rgb(253, 229, 169);" transform="matrix(1, 0, 0, 1, 0, 0)"/><path d="M 6280 3940 L 6197 3940 L 6067 3742 L 5851 3960 L 6252 4098 L 6286 4082 Z" class="fil11" style="fill: rgb(134, 47, 89);" transform="matrix(1, 0, 0, 1, 0, 0)"/><path d="M 6280 3940 L 6197 3940 L 6067 3742 L 5976 3834 L 6058 3977 L 6282 3977 Z" class="fil16" style="fill: rgb(104, 67, 136);" transform="matrix(1, 0, 0, 1, 0, 0)"/><path d="M 7481 2253 L 7528 2357 L 7392 2394 L 7433 2547 L 7211 2487 L 7211 2196 Z" class="fil23" style="fill: rgb(253, 229, 169);" transform="matrix(1, 0, 0, 1, 0, 0)"/><path d="M 7296 2513 L 7316 2474 L 7459 2534 L 7438 2572 Z" class="fil6" style="fill: rgb(163, 202, 40);" transform="matrix(1, 0, 0, 1, 0, 0)"/><path d="M 6265 3961 L 6265 4006 L 6509 4039 L 6948 3979 L 6948 3903 L 6825 3888 L 6603 3923 L 6495 3906 Z" class="fil22" style="fill: rgb(115, 108, 55);" transform="matrix(1, 0, 0, 1, 0, 0)"/><path class="fil6" d="M6580 3948l-24 -2 -93 33 -2 7 111 12 28 -28 -20 -22zm288 -13l-53 0 -10 25 63 0 0 -25zm-188 -1l-66 35 24 20 108 -9 20 -49 -86 3z" style="fill: rgb(163, 202, 40);" transform="matrix(1, 0, 0, 1, 0, 0)"/><path class="fil11" d="M6265 3961l0 45 189 26 -17 -61 68 -38 82 6 19 11 18 -20 -3 -10 -18 3 -108 -17 -230 55zm509 27l152 -49 -68 -18 -9 33 -47 20 -21 -16 -7 30z" style="fill: rgb(134, 47, 89);" transform="matrix(1, 0, 0, 1, 0, 0)"/><path d="M 6145 3972 L 6495 3890 L 6613 3907 L 6864 3851 L 7028 3895 L 6947 3918 L 6838 3896 L 6612 3929 L 6501 3920 L 6213 3978 Z" class="fil20" style="fill: rgb(242, 153, 86);" transform="matrix(1, 0, 0, 1, 0, 0)"/><path d="M 6145 3972 L 6405 3911 L 6405 3940 L 6213 3978 Z" class="fil9" style="fill: rgb(232, 101, 135);" transform="matrix(1, 0, 0, 1, 0, 0)"/><path d="M 6112 4036 L 6472 4163 L 6880 4140 L 7120 3890 L 6927 3932 L 6783 3980 L 6507 4007 L 6296 3992 Z" class="fil9" style="fill: rgb(232, 101, 135);" transform="matrix(1, 0, 0, 1, 0, 0)"/><path class="fil12" d="M6892 4128l168 -176 -346 125 -21 31 -51 -30 -95 0 0 50 345 0zm-405 -35l39 0 0 35 -39 0 0 -35z" style="fill: rgb(248, 184, 71);" transform="matrix(1, 0, 0, 1, 0, 0)"/><path d="M 6892 4128 L 7013 4002 L 6955 4002 L 6793 4128 Z" class="fil1" style="fill: rgb(254, 254, 254);" transform="matrix(1, 0, 0, 1, 0, 0)"/><path class="fil15" d="M6112 4036l156 55 150 -78 89 7 349 -37 188 -50 -34 -19 -83 18 -144 48 -276 27 -211 -15 -184 44zm131 22l22 12 41 -23 -49 -13 -14 24z" style="fill: rgb(146, 86, 157);" transform="matrix(1, 0, 0, 1, 0, 0)"/><path d="M 5817 3056 L 5746 3436 L 5836 3592 L 6124 3227 L 6228 3331 L 6387 3056 Z" class="fil9" style="fill: rgb(232, 101, 135);" transform="matrix(1, 0, 0, 1, 0, 0)"/><path d="M 6369 3056 L 6151 3056 L 6026 3128 L 6192 3294 Z" class="fil6" style="fill: rgb(163, 202, 40);" transform="matrix(1, 0, 0, 1, 0, 0)"/><path d="M 6176 3972 L 6501 3915 L 6608 3924 L 6838 3885 L 6950 3903 L 7151 3874 L 7155 3882 L 6936 3934 L 6835 3906 L 6605 3940 L 6501 3929 L 6296 3972 L 6213 3989 Z" class="fil15" style="fill: rgb(146, 86, 157);" transform="matrix(1, 0, 0, 1, 0, 0)"/><path d="M 5151 1985 L 4987 2126 L 5181 3412 L 5790 3512 L 6008 2679 L 5227 1989 Z" class="fil9" style="fill: rgb(232, 101, 135);" transform="matrix(1, 0, 0, 1, 0, 0)"/><path d="M 6824 3244 L 7111 3078 L 7513 3471 L 7741 3471 L 7401 3067 L 7443 3043 L 7443 2852 L 7356 2828 L 7486 2828 L 7490 2815 L 7378 2750 L 7378 2520 L 7028 2520 L 6797 2494 L 6616 2608 Z" class="fil23" style="fill: rgb(253, 229, 169);" transform="matrix(1, 0, 0, 1, 0, 0)"/><path d="M 6055 2415 L 5903 2800 L 5462 2945 L 5790 3512 L 6192 3105 L 6437 3105 L 6437 2415 Z" class="fil19" style="fill: rgb(238, 209, 75);" transform="matrix(1, 0, 0, 1, 0, 0)"/><path d="M 6055 2415 L 5903 2800 L 5777 2841 L 5777 3105 L 6192 3105 L 6437 3105 L 6437 2415 Z" class="fil1" style="fill: rgb(254, 254, 254);" transform="matrix(1, 0, 0, 1, 0, 0)"/><path d="M 6027 2487 L 5992 2575 L 6097 2714 L 6200 2894 L 6403 2894 L 6403 2487 Z" class="fil23" style="fill: rgb(253, 229, 169);" transform="matrix(1, 0, 0, 1, 0, 0)"/><path d="M 7153 2514 L 6813 2553 L 6856 2712 L 7290 2791 L 7321 2760 L 7219 2760 Z" class="fil19" style="fill: rgb(238, 209, 75);" transform="matrix(1, 0, 0, 1, 0, 0)"/><path d="M 6832 2624 L 6856 2712 L 7290 2791 L 7321 2760 L 7219 2760 L 7210 2725 Z" class="fil9" style="fill: rgb(232, 101, 135);" transform="matrix(1, 0, 0, 1, 0, 0)"/><path d="M 6486 2553 L 6283 2491 L 6283 3248 L 6524 3248 Z" class="fil15" style="fill: rgb(146, 86, 157);" transform="matrix(1, 0, 0, 1, 0, 0)"/><path d="M 6283 3105 L 6113 3360 L 6206 3472 L 6363 3472 L 6576 3553 L 6597 3111 L 6593 3105 Z" class="fil9" style="fill: rgb(232, 101, 135);" transform="matrix(1, 0, 0, 1, 0, 0)"/><path d="M 6171 3273 L 6113 3360 L 6206 3472 L 6363 3472 L 6374 3476 Z" class="fil15" style="fill: rgb(146, 86, 157);" transform="matrix(1, 0, 0, 1, 0, 0)"/><path d="M 6358 3397 L 6415 3356 L 6338 3248 L 6254 3330 Z" class="fil12" style="fill: rgb(248, 184, 71);" transform="matrix(1, 0, 0, 1, 0, 0)"/><path d="M 6437 2543 L 6437 3306 L 6578 3551 L 6781 3552 L 6843 3487 L 6562 2286 L 6407 2286 Z" class="fil12" style="fill: rgb(248, 184, 71);" transform="matrix(1, 0, 0, 1, 0, 0)"/><path d="M 6554 3510 L 6578 3551 L 6781 3552 L 6809 3523 L 6809 3510 Z" class="fil9" style="fill: rgb(232, 101, 135);" transform="matrix(1, 0, 0, 1, 0, 0)"/><path d="M 6524 2392 L 6524 3344 L 6746 3510 L 6809 3510 L 6843 3487 L 6967 3443 L 6984 3428 L 6801 3275 L 6712 2576 L 6996 2576 L 6878 2281 L 6487 2288 Z" class="fil23" style="fill: rgb(253, 229, 169);" transform="matrix(1, 0, 0, 1, 0, 0)"/><path d="M 6524 2392 L 6524 2522 L 6660 2522 L 6660 2362 L 6514 2362 Z" class="fil1" style="fill: rgb(254, 254, 254);" transform="matrix(1, 0, 0, 1, 0, 0)"/><path d="M 4999 2044 L 5045 1680 L 5104 1647 L 4946 1604 L 4773 962 L 5250 470 L 5660 470 L 6067 1980 L 5633 2400 L 5477 2377 L 5487 2328 L 5204 2044 Z" class="fil24" style="fill: rgb(201, 125, 46);" transform="matrix(1, 0, 0, 1, 0, 0)"/><path d="M 6615 635 L 6153 172 L 7132 571 L 7503 1093 L 7716 1795 L 7694 2196 L 6994 2196 L 6682 1803 Z" class="fil1" style="fill: rgb(254, 254, 254);" transform="matrix(1, 0, 0, 1, 0, 0)"/><path d="M 5708 2285 L 5551 2014 L 5688 1777 L 5383 871 L 5571 470 L 6451 470 L 6765 785 L 6300 2431 Z" class="fil6" style="fill: rgb(163, 202, 40);" transform="matrix(1, 0, 0, 1, 0, 0)"/><path d="M 5580 470 L 6451 470 L 6676 696 L 6676 906 L 5986 906 Z" class="fil19" style="fill: rgb(238, 209, 75);" transform="matrix(1, 0, 0, 1, 0, 0)"/><path d="M 6900 2336 L 6580 2336 L 6524 2392 L 6257 2346 L 6173 2346 L 6212 2123 L 6020 1829 L 6328 1829 L 6364 1783 L 6149 1783 L 5567 1236 L 6615 635 L 7109 1128 L 6893 1933 L 7293 2100 L 7293 2222 Z" class="fil23" style="fill: rgb(253, 229, 169);" transform="matrix(1, 0, 0, 1, 0, 0)"/><path d="M 6346 1805 L 6364 1783 L 6149 1783 L 5567 1236 L 6142 906 L 6536 906 L 6536 1805 Z" class="fil19" style="fill: rgb(238, 209, 75);" transform="matrix(1, 0, 0, 1, 0, 0)"/><path d="M 6900 2336 L 6580 2336 L 6524 2392 L 6257 2346 L 6173 2346 L 6212 2123 L 6020 1829 L 6328 1829 L 6346 1807 L 6536 1805 L 6504 1860 L 6504 2069 L 6754 2213 L 6754 1912 L 6837 1912 L 6817 1987 L 6915 2156 L 7136 2156 L 7226 2181 L 7226 2242 Z" class="fil19" style="fill: rgb(238, 209, 75);" transform="matrix(1, 0, 0, 1, 0, 0)"/><path d="M 6437 2377 L 6257 2346 L 6236 2346 L 6200 2311 L 6437 2208 Z" class="fil20" style="fill: rgb(242, 153, 86);" transform="matrix(1, 0, 0, 1, 0, 0)"/><path d="M 6529 2576 L 6625 3325 L 6984 3428 L 7018 3269 L 6936 3247 L 6898 3269 L 6712 2576 Z" class="fil1" style="fill: rgb(254, 254, 254);" transform="matrix(1, 0, 0, 1, 0, 0)"/><path d="M 5564 2544 L 5487 2520 L 5444 2561 L 5452 2711 L 5620 2755 Z" class="fil10" style="fill: rgb(220, 63, 106);" transform="matrix(1, 0, 0, 1, 0, 0)"/><path d="M 5559 2585 L 6090 2699 L 6102 2726 L 5815 2833 L 5481 2833 L 5466 2806 L 5504 2784 L 5452 2771 L 5452 2685 L 5473 2685 L 5460 2663 L 5452 2663 L 5452 2652 Z" class="fil20" style="fill: rgb(242, 153, 86);" transform="matrix(1, 0, 0, 1, 0, 0)"/><path d="M 5748 2568 L 5584 2571 L 5532 2600 L 5567 2730 L 5782 2812 Z" class="fil20" style="fill: rgb(242, 153, 86);" transform="matrix(1, 0, 0, 1, 0, 0)"/><path d="M 7132 2571 L 7028 2677 L 6829 2623 L 6816 2564 L 6948 2532 Z" class="fil25" style="fill: rgb(241, 165, 76);" transform="matrix(1, 0, 0, 1, 0, 0)"/><path d="M 5628 2232 L 5501 2295 L 5416 2368 L 5557 2585 L 6177 2532 L 6177 2347 Z" class="fil26" style="fill: rgb(238, 133, 54);" transform="matrix(1, 0, 0, 1, 0, 0)"/><path d="M 6137 2563 L 6207 2604 L 6097 2714 L 5782 2812 L 5680 2636 L 5657 2636 L 5657 2566 Z" class="fil19" style="fill: rgb(238, 209, 75);" transform="matrix(1, 0, 0, 1, 0, 0)"/><path d="M 5712 2690 L 5680 2636 L 5657 2636 L 5657 2585 L 5748 2568 L 5857 2629 Z" class="fil20" style="fill: rgb(242, 153, 86);" transform="matrix(1, 0, 0, 1, 0, 0)"/><path d="M 6097 2578 L 6008 2581 L 6008 2679 L 6098 2679 L 6141 2608 Z" class="fil23" style="fill: rgb(253, 229, 169);" transform="matrix(1, 0, 0, 1, 0, 0)"/><path d="M 6177 2526 L 6177 2441 L 5811 2343 L 5719 2394 L 5808 2536 L 6033 2488 Z" class="fil25" style="fill: rgb(241, 165, 76);" transform="matrix(1, 0, 0, 1, 0, 0)"/><path d="M 5416 2368 L 5475 2316 L 5592 2432 L 5592 2592 L 5559 2585 L 5559 2585 L 5438 2542 Z" class="fil15" style="fill: rgb(146, 86, 157);" transform="matrix(1, 0, 0, 1, 0, 0)"/><path d="M 7261 2210 L 7373 2246 L 7286 2297 L 7286 2501 L 6950 2501 L 6950 2336 Z" class="fil25" style="fill: rgb(241, 165, 76);" transform="matrix(1, 0, 0, 1, 0, 0)"/><path d="M 6176 2334 L 6130 2506 L 6028 2500 L 6008 2556 L 6139 2595 L 6240 2561 L 6437 2674 L 6437 2373 Z" class="fil27" style="fill: rgb(172, 81, 51);" transform="matrix(1, 0, 0, 1, 0, 0)"/><path d="M 6149 2434 L 6130 2506 L 6092 2504 L 6212 2535 L 6224 2454 Z" class="fil9" style="fill: rgb(232, 101, 135);" transform="matrix(1, 0, 0, 1, 0, 0)"/><path d="M 6933 2226 L 7176 2308 L 7008 2366 L 7008 2508 L 6821 2582 L 6769 2390 Z" class="fil10" style="fill: rgb(220, 63, 106);" transform="matrix(1, 0, 0, 1, 0, 0)"/><path d="M 7008 2366 L 7008 2478 L 6957 2528 L 6956 2529 L 6888 2410 Z" class="fil9" style="fill: rgb(232, 101, 135);" transform="matrix(1, 0, 0, 1, 0, 0)"/><path d="M 6878 2560 L 6821 2582 L 6811 2545 L 6878 2545 Z" class="fil1" style="fill: rgb(254, 254, 254);" transform="matrix(1, 0, 0, 1, 0, 0)"/><path d="M 6122 2328 L 6156 2373 L 6293 2320 L 6215 2275 Z" class="fil11" style="fill: rgb(134, 47, 89);" transform="matrix(1, 0, 0, 1, 0, 0)"/><path d="M 7076 2336 L 7055 2226 L 6933 2226 L 6822 2336 Z" class="fil11" style="fill: rgb(134, 47, 89);" transform="matrix(1, 0, 0, 1, 0, 0)"/><path d="M 6145 2593 L 5943 2655 L 5796 2655 L 5857 2629 L 5799 2597 L 6096 2566 Z" class="fil9" style="fill: rgb(232, 101, 135);" transform="matrix(1, 0, 0, 1, 0, 0)"/><path d="M 6145 2593 L 6008 2635 L 6008 2575 L 6096 2566 Z" class="fil15" style="fill: rgb(146, 86, 157);" transform="matrix(1, 0, 0, 1, 0, 0)"/><path d="M 7316 2501 L 7379 2526 L 7271 2594 L 6955 2594 L 6955 2550 Z" class="fil24" style="fill: rgb(201, 125, 46);" transform="matrix(1, 0, 0, 1, 0, 0)"/><path d="M 7348 2513 L 7379 2526 L 7279 2589 L 7279 2513 Z" class="fil15" style="fill: rgb(146, 86, 157);" transform="matrix(1, 0, 0, 1, 0, 0)"/><path d="M 6997 2480 L 7037 2580 L 6924 2580 L 6907 2550 Z" class="fil14" style="fill: rgb(28, 112, 123);" transform="matrix(1, 0, 0, 1, 0, 0)"/><path d="M 7019 2535 L 7037 2580 L 6955 2580 L 6955 2535 Z" class="fil6" style="fill: rgb(163, 202, 40);" transform="matrix(1, 0, 0, 1, 0, 0)"/><path d="M 7223 2482 L 7147 2584 L 7269 2584 L 7340 2515 Z" class="fil13" style="fill: rgb(151, 209, 227);" transform="matrix(1, 0, 0, 1, 0, 0)"/><path d="M 7200 2513 L 7147 2584 L 7269 2584 L 7279 2574 L 7279 2513 Z" class="fil1" style="fill: rgb(254, 254, 254);" transform="matrix(1, 0, 0, 1, 0, 0)"/><path d="M 5709 2563 L 5714 2616 L 5686 2628 L 5600 2599 L 5646 2547 Z" class="fil14" style="fill: rgb(28, 112, 123);" transform="matrix(1, 0, 0, 1, 0, 0)"/><path d="M 5709 2573 L 5714 2616 L 5686 2628 L 5658 2618 L 5658 2573 Z" class="fil6" style="fill: rgb(163, 202, 40);" transform="matrix(1, 0, 0, 1, 0, 0)"/><path d="M 5850 2648 L 5941 2648 L 6121 2581 L 5999 2503 L 5907 2503 Z" class="fil6" style="fill: rgb(163, 202, 40);" transform="matrix(1, 0, 0, 1, 0, 0)"/><path class="fil1" d="M5850 2648l91 0 67 -25 0 -84 -115 0 -43 109zm206 -42l65 -25 -17 -10 -34 -20 -14 55z" style="fill: rgb(254, 254, 254);" transform="matrix(1, 0, 0, 1, 0, 0)"/><path d="M 6981 2520 L 6981 2550 L 7018 2579 L 7189 2585 L 7225 2545 L 7225 2495 L 7428 2548 L 7316 2474 L 7013 2458 L 6821 2582 L 6910 2579 L 6958 2520 Z" class="fil28" style="fill: rgb(34, 36, 40);" transform="matrix(1, 0, 0, 1, 0, 0)"/><path d="M 7211 2487 L 7211 2540 L 7181 2571 L 7025 2569 L 6998 2522 L 7074 2522 L 7081 2549 L 7133 2549 L 7133 2487 L 7135 2487 L 7159 2487 Z" class="fil29" style="fill: rgb(37, 45, 63);" transform="matrix(1, 0, 0, 1, 0, 0)"/><path d="M 7133 2549 L 7133 2487 L 7135 2487 L 7159 2487 L 7196 2487 L 7176 2561 Z" class="fil17" style="fill: rgb(40, 67, 111);" transform="matrix(1, 0, 0, 1, 0, 0)"/><path class="fil1" d="M7133 2487l19 0 0 19 -19 0 0 -19zm34 0l44 0 0 19 -44 0 0 -19z" style="fill: rgb(254, 254, 254);" transform="matrix(1, 0, 0, 1, 0, 0)"/><path d="M 5682 2567 L 5698 2630 L 5850 2648 L 5918 2588 L 5918 2511 L 6001 2511 L 6127 2599 L 6175 2583 L 6036 2512 L 6212 2546 L 6212 2535 L 6072 2486 L 5995 2491 L 5995 2491 L 5687 2515 L 5557 2585 L 5613 2603 L 5641 2565 Z" class="fil28" style="fill: rgb(34, 36, 40);" transform="matrix(1, 0, 0, 1, 0, 0)"/><path d="M 5825 2527 L 5886 2527 L 5886 2584 L 5842 2629 L 5710 2615 L 5753 2542 L 5778 2586 L 5825 2586 Z" class="fil29" style="fill: rgb(37, 45, 63);" transform="matrix(1, 0, 0, 1, 0, 0)"/><path class="fil1" d="M5808 2527l19 0 0 19 -19 0 0 -19zm33 0l45 0 0 19 -45 0 0 -19z" style="fill: rgb(254, 254, 254);" transform="matrix(1, 0, 0, 1, 0, 0)"/><path class="fil28" d="M6576 3553l-160 -85 -131 0 242 73 35 25 14 -13zm349 -74l42 -36 -131 38 -55 71 64 -55 80 -18z" style="fill: rgb(34, 36, 40);" transform="matrix(1, 0, 0, 1, 0, 0)"/><path class="fil28" d="M6112 4036l-204 -73 26 -34 211 43 151 0 0 20 -184 44zm1043 -154l-4 -8 47 -50 50 58 -93 0z" style="fill: rgb(34, 36, 40);" transform="matrix(1, 0, 0, 1, 0, 0)"/><path d="M 6160 2396 L 6192 2272 L 5941 2227 L 5901 2250 L 5878 2228 L 5625 2199 L 5475 2316 L 5487 2328 L 5605 2280 L 5666 2312 L 6053 2366 L 6092 2356 Z" class="fil16" style="fill: rgb(104, 67, 136);" transform="matrix(1, 0, 0, 1, 0, 0)"/><path d="M 7169 2175 L 7026 2220 L 6972 2294 L 7076 2341 L 7277 2276 L 7290 2252 L 7472 2286 L 7515 2361 L 7528 2357 L 7479 2174 L 7238 2174 L 7215 2187 Z" class="fil16" style="fill: rgb(104, 67, 136);" transform="matrix(1, 0, 0, 1, 0, 0)"/><path d="M 6445 1876 L 6445 2050 L 6336 2159 L 6336 1905 Z" class="fil23" style="fill: rgb(253, 229, 169);" transform="matrix(1, 0, 0, 1, 0, 0)"/><path d="M 7282 2699 L 7325 2699 L 7325 2727 L 7282 2727 Z" class="fil1" style="fill: rgb(254, 254, 254);" transform="matrix(1, 0, 0, 1, 0, 0)"/><path d="M 7750 2579 L 7727 2607 L 7702 2430 L 7764 2367 Z" class="fil23" style="fill: rgb(253, 229, 169);" transform="matrix(1, 0, 0, 1, 0, 0)"/><path d="M 4631 3188 L 4382 3002 L 4454 2715 L 4631 2817 L 4550 2998 L 4629 3165 Z" class="fil15" style="fill: rgb(146, 86, 157);" transform="matrix(1, 0, 0, 1, 0, 0)"/><path d="M 4250 2285 L 4158 2377 L 4554 2526 L 4431 2348 Z" class="fil23" style="fill: rgb(253, 229, 169);" transform="matrix(1, 0, 0, 1, 0, 0)"/><path d="M 5833 4250 L 5876 4231 L 6059 4414 L 5940 4536 Z" class="fil21" style="fill: rgb(186, 120, 56);" transform="matrix(1, 0, 0, 1, 0, 0)"/><path d="M 7960 3974 L 8038 3974 L 8038 4052 L 7960 4052 Z" class="fil4" style="fill: rgb(162, 129, 51);" transform="matrix(1, 0, 0, 1, 0, 0)"/><path d="M 8213 4685 L 8369 4685 L 8369 4842 L 8213 4842 Z" class="fil30" style="fill: rgb(204, 159, 12);" transform="matrix(1, 0, 0, 1, 0, 0)"/><path class="fil31" d="M3430 7779l0 36c18,0 34,4 50,12 17,9 30,23 38,41 8,16 10,35 10,53l0 144 -218 0 0 -304 16 0 0 -64 -70 0 0 82 -177 0 0 -294c0,-29 5,-57 16,-83 11,-25 26,-48 46,-67 19,-19 42,-35 67,-45 26,-12 54,-17 83,-17 28,0 56,5 83,17 25,10 47,26 67,45 15,16 28,34 39,53l0 -115 177 0 0 329 149 0 0 -117c0,-29 5,-57 17,-83 11,-25 26,-48 45,-67 19,-19 42,-35 67,-45 26,-12 54,-17 83,-17 29,0 57,5 83,17 25,10 48,26 67,45 16,16 29,34 39,53l0 -115 163 0 84 144 0 -144 177 0 0 506 -163 0 -84 -143 0 143 -331 0 0 -82 -70 0 0 82 -553 0zm-104 -259l0 -35c0,-5 -1,-9 -3,-13 -2,-4 -4,-8 -8,-12 -3,-3 -7,-5 -11,-7 -4,-2 -9,-3 -13,-3 -5,0 -10,1 -14,3 -4,2 -8,4 -11,7 -3,4 -6,8 -8,12 -2,4 -2,8 -2,13l0 35 70 0zm727 0l0 -35c0,-5 -1,-9 -3,-13 -2,-4 -4,-8 -7,-12 -4,-3 -7,-5 -12,-7 -4,-2 -8,-3 -13,-3 -5,0 -9,1 -13,3 -5,2 -8,4 -12,7 -3,4 -5,8 -7,12 -2,4 -3,8 -3,13l0 35 70 0zm-12 519l0 -221 81 0c8,-2 15,-3 22,-3 19,0 36,6 51,15l35 21 -44 112 -24 -14 0 116 -243 0 0 0c-10,2 -20,3 -31,3 -26,0 -51,-7 -70,-24 -19,-18 -29,-41 -29,-67 0,-9 1,-18 4,-26l-7 -1 -8 29 0 17 -5 0c-7,20 -19,37 -36,50 -21,16 -46,22 -72,22 -34,0 -64,-11 -87,-35 -24,-25 -33,-57 -33,-90 0,-34 9,-67 33,-92 22,-24 52,-36 85,-36 33,0 62,12 85,36 20,22 29,50 31,79l8 1 7 -32c4,-16 10,-32 21,-45 11,-15 26,-25 44,-31 16,-6 33,-8 50,-8 17,0 33,2 49,8 14,5 27,13 37,25 9,11 15,24 18,38l0 1c2,11 2,22 2,33l0 34c0,11 0,27 1,37 1,2 1,3 2,4l23 44zm-961 -109c-2,-7 -4,-16 -4,-24 0,-14 4,-28 11,-41 6,-12 15,-22 26,-30 10,-7 20,-12 31,-15 12,-3 24,-5 36,-5 16,0 33,2 48,8 16,7 31,16 41,31 10,13 15,28 18,44l7 47 -5 1c3,9 4,18 4,27 0,18 -5,35 -15,50 -11,16 -25,27 -43,35 -16,7 -33,10 -51,10 -26,0 -53,-6 -74,-22 -21,-17 -33,-40 -37,-65l-9 -48 16 -3zm1366 0l11 2 -12 47 -1 17 -4 0c-8,20 -20,37 -37,50 -21,16 -46,22 -72,22 -33,0 -64,-11 -87,-35 -23,-25 -33,-57 -33,-90 0,-34 9,-67 33,-92 23,-24 52,-36 86,-36 32,0 62,12 84,36 20,22 30,50 32,79zm99 -112c7,-2 14,-3 22,-3 18,0 35,6 51,15l34 21 -43 112 -25 -14 0 116 -120 0 0 -247 81 0z" style="fill: rgb(254, 254, 254);" transform="matrix(1, 0, 0, 1, 0, 0)"/><path class="fil32" d="M3373 7567l0 -82c0,-11 -2,-22 -6,-32 -5,-10 -11,-19 -18,-26 -8,-8 -16,-14 -26,-18 -10,-4 -21,-6 -32,-6 -12,0 -22,2 -32,6 -11,4 -19,10 -27,18 -7,7 -13,16 -17,26 -5,10 -7,21 -7,32l0 82 165 0zm82 165l-82 0 0 -82 -165 0 0 82 -82 0 0 -247c0,-23 4,-44 13,-64 9,-20 20,-38 35,-52 15,-15 32,-27 52,-36 20,-8 42,-13 65,-13 22,0 44,5 64,13 20,9 37,21 52,36 15,14 27,32 35,52 9,20 13,41 13,64l0 247z" style="fill: rgb(104, 67, 136); fill-rule: nonzero;" transform="matrix(1, 0, 0, 1, 0, 0)"/><path d="M 3815 7732 L 3527 7732 L 3527 7320 L 3609 7320 L 3609 7650 L 3815 7650 Z" id="1" class="fil32" style="fill: rgb(104, 67, 136); fill-rule: nonzero;" transform="matrix(1, 0, 0, 1, 0, 0)"/><path id="2" class="fil32" d="M4100 7567l0 -82c0,-11 -2,-22 -6,-32 -4,-10 -10,-19 -18,-26 -7,-8 -16,-14 -26,-18 -10,-4 -21,-6 -32,-6 -11,0 -22,2 -32,6 -10,4 -19,10 -26,18 -8,7 -14,16 -18,26 -4,10 -6,21 -6,32l0 82 164 0zm83 165l-83 0 0 -82 -164 0 0 82 -83 0 0 -247c0,-23 5,-44 13,-64 9,-20 21,-38 36,-52 14,-15 32,-27 52,-36 20,-8 41,-13 64,-13 23,0 44,5 64,13 20,9 38,21 53,36 14,14 26,32 35,52 8,20 13,41 13,64l0 247z" style="fill: rgb(104, 67, 136); fill-rule: nonzero;" transform="matrix(1, 0, 0, 1, 0, 0)"/><path d="M 4584 7732 L 4496 7732 L 4337 7461 L 4337 7732 L 4254 7732 L 4254 7320 L 4342 7320 L 4501 7592 L 4501 7320 L 4584 7320 Z" id="3" class="fil32" style="fill: rgb(104, 67, 136); fill-rule: nonzero;" transform="matrix(1, 0, 0, 1, 0, 0)"/><path class="fil33" d="M3120 7972l25 -4c1,10 5,18 12,24 6,5 16,8 27,8 12,0 21,-3 27,-8 5,-4 8,-10 8,-16 0,-6 -2,-11 -7,-14 -4,-2 -13,-5 -27,-9 -19,-5 -32,-9 -39,-12 -7,-4 -13,-8 -16,-15 -4,-6 -6,-12 -6,-20 0,-7 1,-13 5,-19 3,-5 7,-10 12,-14 4,-3 10,-5 17,-7 6,-2 14,-3 22,-3 12,0 22,1 31,5 9,3 16,8 20,14 4,6 7,13 9,23l-25 4c-2,-8 -5,-14 -10,-19 -6,-4 -13,-6 -23,-6 -12,0 -21,2 -26,5 -5,4 -7,9 -7,14 0,3 1,6 3,9 2,3 5,5 10,7 2,1 10,3 22,7 19,4 31,8 38,11 8,3 13,8 17,14 5,6 7,13 7,22 0,8 -3,16 -8,24 -5,8 -12,13 -22,18 -9,4 -20,6 -32,6 -19,0 -34,-4 -45,-13 -10,-8 -17,-20 -19,-36z" style="fill: rgb(28, 112, 123); fill-rule: nonzero;" transform="matrix(1, 0, 0, 1, 0, 0)"/><path id="1" class="fil33" d="M3357 8017l0 -209 26 0 0 75c12,-14 27,-20 45,-20 11,0 21,2 29,6 9,5 14,11 18,18 4,8 5,20 5,34l0 96 -25 0 0 -95c0,-13 -3,-23 -9,-28 -5,-6 -13,-9 -23,-9 -8,0 -15,2 -22,6 -6,4 -11,9 -14,16 -3,6 -4,16 -4,28l0 82 -26 0z" style="fill: rgb(28, 112, 123); fill-rule: nonzero;" transform="matrix(1, 0, 0, 1, 0, 0)"/><path id="2" class="fil33" d="M3705 7968l26 4c-4,15 -12,27 -23,36 -11,8 -26,13 -43,13 -22,0 -40,-7 -53,-21 -13,-13 -19,-33 -19,-57 0,-26 6,-45 19,-59 13,-14 30,-21 51,-21 20,0 37,6 50,20 13,14 19,33 19,58 0,2 0,4 0,7l-113 0c1,17 6,30 14,38 8,9 19,14 32,14 9,0 17,-3 24,-8 6,-5 12,-13 16,-24zm-85 -41l85 0c-1,-13 -5,-22 -10,-29 -8,-9 -19,-14 -32,-14 -11,0 -21,4 -29,11 -8,8 -13,19 -14,32z" style="fill: rgb(28, 112, 123); fill-rule: nonzero;" transform="matrix(1, 0, 0, 1, 0, 0)"/><path id="3" class="fil33" d="M3944 7998c-9,9 -19,14 -28,18 -8,3 -18,5 -28,5 -17,0 -29,-4 -38,-12 -9,-9 -14,-19 -14,-32 0,-7 2,-14 5,-20 4,-6 8,-11 14,-15 5,-3 11,-6 18,-8 5,-1 13,-3 23,-4 21,-2 36,-5 46,-9 0,-3 0,-5 0,-6 0,-11 -2,-18 -7,-22 -7,-6 -17,-9 -30,-9 -12,0 -21,2 -26,6 -6,4 -11,12 -13,23l-25 -4c2,-10 6,-19 11,-26 5,-6 13,-12 23,-15 10,-4 21,-5 34,-5 13,0 24,1 32,4 8,3 14,7 18,12 4,4 6,10 8,17 1,5 1,12 1,24l0 34c0,24 1,39 2,45 1,7 3,13 6,18l-27 0c-3,-5 -4,-11 -5,-19zm-2 -57c-9,4 -23,7 -42,10 -11,2 -18,3 -23,5 -4,2 -7,5 -10,9 -2,3 -3,7 -3,12 0,6 2,12 7,17 6,4 13,7 23,7 10,0 19,-3 27,-7 7,-4 13,-10 17,-18 2,-5 4,-14 4,-25l0 -10z" style="fill: rgb(28, 112, 123); fill-rule: nonzero;" transform="matrix(1, 0, 0, 1, 0, 0)"/><path id="4" class="fil33" d="M4089 8017l0 -151 23 0 0 23c5,-11 11,-18 16,-21 5,-4 10,-5 16,-5 9,0 18,2 27,8l-9 23c-6,-3 -13,-5 -19,-5 -6,0 -11,2 -15,5 -4,4 -8,8 -9,14 -3,9 -5,19 -5,30l0 79 -25 0z" style="fill: rgb(28, 112, 123); fill-rule: nonzero;" transform="matrix(1, 0, 0, 1, 0, 0)"/><path id="5" class="fil33" d="M4371 7968l27 4c-5,15 -12,27 -24,36 -11,8 -25,13 -43,13 -22,0 -40,-7 -53,-21 -13,-13 -19,-33 -19,-57 0,-26 6,-45 20,-59 13,-14 30,-21 51,-21 20,0 36,6 49,20 13,14 19,33 19,58 0,2 0,4 0,7l-113 0c1,17 6,30 14,38 9,9 19,14 32,14 9,0 17,-3 24,-8 7,-5 12,-13 16,-24zm-84 -41l84 0c-1,-13 -4,-22 -9,-29 -9,-9 -19,-14 -32,-14 -12,0 -22,4 -30,11 -8,8 -12,19 -13,32z" style="fill: rgb(28, 112, 123); fill-rule: nonzero;" transform="matrix(1, 0, 0, 1, 0, 0)"/><path id="6" class="fil33" d="M4511 8017l0 -151 23 0 0 23c6,-11 11,-18 16,-21 5,-4 11,-5 17,-5 9,0 17,2 26,8l-9 23c-6,-3 -12,-5 -18,-5 -6,0 -11,2 -16,5 -4,4 -7,8 -9,14 -3,9 -4,19 -4,30l0 79 -26 0z" style="fill: rgb(28, 112, 123); fill-rule: nonzero;" transform="matrix(1, 0, 0, 1, 0, 0)"/>
</svg>