<?xml version="1.0" encoding="utf-8"?>
<svg id="master-artboard" viewBox="0 0 1400 980" version="1.0" xmlns="http://www.w3.org/2000/svg" x="0px" y="0px" width="1400px" height="980px" enable-background="new 0 0 1400 980"><rect id="ee-background" x="0" y="0" width="1400" height="980" style="fill: rgb(255, 251, 232); fill-opacity: 1; pointer-events: none;"/>

<g transform="matrix(0.9999999999999999, 0, 0, 0.9999999999999999, 214.8205836762395, 623.7753361083664)">
		<path opacity="0.1" d="M599.49,283.161c0,10.68-52.033,19.334-116.224,19.334c-64.186,0-116.22-8.654-116.22-19.334&#10;&#9;&#9;&#9;c0-10.678,52.034-19.334,116.22-19.334C547.457,263.827,599.49,272.483,599.49,283.161z"/>
		<g>
			
				<path d="M 604.628006 161.419006 A 121.360001 121.360001 0 0 1 483.268005 282.779007 A 121.360001 121.360001 0 0 1 361.908005 161.419006 A 121.360001 121.360001 0 0 1 483.268005 40.059006 A 121.360001 121.360001 0 0 1 604.628006 161.419006 Z" fill="#F1F2F2" stroke="#000000" stroke-width="8" stroke-linecap="round" stroke-linejoin="round" stroke-miterlimit="10"/>
			
				<path fill="#4D4D4F" stroke="#000000" stroke-width="8" stroke-linecap="round" stroke-linejoin="round" stroke-miterlimit="10" d="&#10;&#9;&#9;&#9;&#9;M412.074,134.976l-5.11-40.093c-0.246-1.9-1.639-3.277-3.103-3.057l-22.26,3.354c-11.382,17.432-18.428,37.956-19.536,60.054&#10;&#9;&#9;&#9;&#9;l16.052,15.812c1.06,1.039,2.996,0.748,4.311-0.648l27.7-29.429C411.444,139.574,412.319,136.878,412.074,134.976z&#10;&#9;&#9;&#9;&#9; M455.58,197.798c0.663,2.035,2.957,3.702,5.1,3.702h45.178c2.143,0,4.437-1.667,5.1-3.702l13.96-42.968&#10;&#9;&#9;&#9;&#9;c0.661-2.038-0.215-4.734-1.948-5.994l-36.55-26.555c-1.733-1.26-4.567-1.26-6.303,0l-36.548,26.555&#10;&#9;&#9;&#9;&#9;c-1.733,1.26-2.609,3.956-1.948,5.994L455.58,197.798z M443.568,68.286l36.548,17.252c1.736,0.819,4.569,0.819,6.303,0&#10;&#9;&#9;&#9;&#9;l36.55-17.252c1.733-0.819,2.609-2.57,1.948-3.894L514.835,44.23c-10.066-2.706-20.645-4.172-31.566-4.172&#10;&#9;&#9;&#9;&#9;c-10.924,0-21.499,1.467-31.571,4.172L441.62,64.392C440.959,65.715,441.834,67.466,443.568,68.286z M584.933,95.177&#10;&#9;&#9;&#9;&#9;l-22.25-3.349c-1.469-0.226-2.862,1.154-3.113,3.049l-5.104,40.096c-0.246,1.9,0.625,4.595,1.945,5.996l27.701,29.424&#10;&#9;&#9;&#9;&#9;c1.315,1.397,3.251,1.694,4.306,0.653l16.054-15.812C603.364,133.133,596.318,112.611,584.933,95.177z M570.133,213.425&#10;&#9;&#9;&#9;&#9;l-39.712,7.532c-1.884,0.353-4.178,2.018-5.1,3.704l-19.426,35.437c-0.921,1.682-0.604,3.618,0.712,4.296l20,10.384&#10;&#9;&#9;&#9;&#9;c20.163-7.714,37.738-20.637,51.079-37.142l-3.692-22.196C573.753,213.976,572.012,213.077,570.133,213.425z M441.218,224.661&#10;&#9;&#9;&#9;&#9;c-0.921-1.685-3.211-3.348-5.1-3.702l-39.707-7.529c-1.884-0.353-3.625,0.542-3.866,2.004l-3.691,22.204&#10;&#9;&#9;&#9;&#9;c13.341,16.502,30.916,29.425,51.079,37.142l19.995-10.381c1.32-0.683,1.638-2.616,0.722-4.298L441.218,224.661z"/>
		</g>
	</g><path opacity="0.1" d="M299.616,609.416c0,10.68-60.084,19.334-134.207,19.334c-74.118,0-134.203-8.654-134.203-19.334&#10;&#9;&#9;&#9;c0-10.678,60.085-19.334,134.203-19.334C239.531,590.082,299.616,598.738,299.616,609.416z" transform="matrix(0.9999999999999999, 0, 0, 0.9999999999999999, 513.9781622284054, -25.46021757807293)"/><path fill="#A1DBE4" stroke="#000000" stroke-width="8" stroke-linecap="round" stroke-linejoin="round" stroke-miterlimit="10" d="&#10;&#9;&#9;&#9;&#9;M31.268,413.077l31.46,45.917c0,0,19.508-12.859,21.759-14.302c2.53-1.623,6.385-4.541,10.087-4.541v-67.288l-19.333,10.005&#10;&#9;&#9;&#9;&#9;C60.951,392.021,31.268,413.077,31.268,413.077z M245.844,382.868l-19.338-10.005v67.291c3.703,0,7.558,2.918,10.086,4.538&#10;&#9;&#9;&#9;&#9;c2.251,1.447,21.761,14.304,21.761,14.304l31.463-45.915C289.816,413.081,260.13,392.022,245.844,382.868z" transform="matrix(0.9999999999999999, 0, 0, 0.9999999999999999, 513.9781622284054, -25.46021757807293)"/><path fill="#16BECF" stroke="#000000" stroke-width="8" stroke-linecap="round" stroke-linejoin="round" stroke-miterlimit="10" d="&#10;&#9;&#9;&#9;&#9;M226.506,570.226V440.154v-67.291c-2.849-0.851-5.752-1.385-8.801-1.385c-6.696,0-26.896,0-26.896,0s-1.412,23.783-30.269,23.783&#10;&#9;&#9;&#9;&#9;c-28.857,0-30.265-23.783-30.265-23.783s-20.199,0-26.899,0c-3.046,0-5.949,0.534-8.801,1.385v67.288v130.075H226.506z" transform="matrix(0.9999999999999999, 0, 0, 0.9999999999999999, 513.9781622284054, -25.46021757807293)"/><g transform="matrix(0.9999999999999999, 0, 0, 0.9999999999999999, 513.9781622284054, -25.46021757807293)">
					<g>
						
							<path d="M 168.01400756835938 502.0050048828125 L 153.45899963378906 609.416015625 L 218.99000549316406 609.416015625 L 226.50599670410156 560.3989868164062 L 234.02099609375 609.416015625 L 299.5539855957031 609.416015625 L 284.9989929199219 502.0050048828125 Z" fill="#A1DBE4" stroke="#000000" stroke-width="8" stroke-linecap="round" stroke-linejoin="round" stroke-miterlimit="10"/>
					</g>
				</g><path fill="#16BECF" stroke="#000000" stroke-width="8" stroke-linecap="round" stroke-linejoin="round" stroke-miterlimit="10" d="&#10;&#9;&#9;&#9;&#9;M284.999,502.005H168.014c-0.949,0-1.715-0.769-1.715-1.717V481.07c0-0.948,0.766-1.718,1.715-1.718h116.985&#10;&#9;&#9;&#9;&#9;c0.949,0,1.715,0.77,1.715,1.718v19.219C286.714,501.237,285.947,502.005,284.999,502.005z" transform="matrix(0.9999999999999999, 0, 0, 0.9999999999999999, 513.9781622284054, -25.46021757807293)"/><path d="M 1297.823952 914.817993 A 111.926003 19.334 0 0 1 1185.897949 934.151993 A 111.926003 19.334 0 0 1 1073.971947 914.817993 A 111.926003 19.334 0 0 1 1185.897949 895.483994 A 111.926003 19.334 0 0 1 1297.823952 914.817993 Z" opacity="0.1" transform="matrix(0.9999999999999999, 0, 0, 0.9999999999999999, -512.3868890411256, -634.9142104217008)"/><path fill="#E8C453" stroke="#000000" stroke-width="8" stroke-linecap="round" stroke-linejoin="round" stroke-miterlimit="10" d="&#10;&#9;&#9;&#9;&#9;M1245.62,737.485c0,95.854-26.738,114.615-59.722,114.615c-32.983,0-59.724-18.761-59.724-114.615H1245.62z" transform="matrix(0.9999999999999999, 0, 0, 0.9999999999999999, -512.3868890411256, -634.9142104217008)"/><path d="M 1126.17395 690.965027 H 1245.619949 V 737.486027 H 1126.17395 V 690.965027 Z" fill="#C8AB48" stroke="#000000" stroke-width="8" stroke-linecap="round" stroke-linejoin="round" stroke-miterlimit="10" transform="matrix(0.9999999999999999, 0, 0, 0.9999999999999999, -512.3868890411256, -634.9142104217008)"/><path fill="none" stroke="#000000" stroke-width="8" stroke-linecap="round" stroke-linejoin="round" stroke-miterlimit="10" d="&#10;&#9;&#9;&#9;&#9;M1245.62,737.485c21.439,0,28.239-46.858,59.479-27.259c31.24,19.603-4.155,129.367-72.245,111.851" transform="matrix(0.9999999999999999, 0, 0, 0.9999999999999999, -512.3868890411256, -634.9142104217008)"/><path d="M 1171.80896 852.101013 H 1199.98596 V 892.528011 H 1171.80896 V 852.101013 Z" fill="#C8AB48" stroke="#000000" stroke-width="8" stroke-linecap="round" stroke-linejoin="round" stroke-miterlimit="10" transform="matrix(0.9999999999999999, 0, 0, 0.9999999999999999, -512.3868890411256, -634.9142104217008)"/><path d="M 1220.574951171875 892.5269775390625 L 1151.219970703125 892.5269775390625 L 1130.6300048828125 914.8179931640625 L 1241.1650390625 914.8179931640625 Z" fill="#E8C453" stroke="#000000" stroke-width="8" stroke-linecap="round" stroke-linejoin="round" stroke-miterlimit="10" transform="matrix(0.9999999999999999, 0, 0, 0.9999999999999999, -512.3868890411256, -634.9142104217008)"/><path fill="none" stroke="#000000" stroke-width="8" stroke-linecap="round" stroke-linejoin="round" stroke-miterlimit="10" d="&#10;&#9;&#9;&#9;&#9;M1126.176,737.485c-21.439,0-28.239-46.858-59.479-27.259c-31.24,19.603,4.155,129.367,72.245,111.851" transform="matrix(0.9999999999999999, 0, 0, 0.9999999999999999, -512.3868890411256, -634.9142104217008)"/>
</svg>